<?xml version="1.0" encoding="UTF-8" standalone="no"?>
<!DOCTYPE svg PUBLIC "-//W3C//DTD SVG 1.1//EN" "http://www.w3.org/Graphics/SVG/1.1/DTD/svg11.dtd">
<svg width="100%" height="100%" viewBox="0 0 512 512" version="1.1" xmlns="http://www.w3.org/2000/svg" xmlns:xlink="http://www.w3.org/1999/xlink" xml:space="preserve" xmlns:serif="http://www.serif.com/" style="fill-rule:evenodd;clip-rule:evenodd;stroke-linejoin:round;stroke-miterlimit:2;">
    <g transform="matrix(1.13216,0,0,1.13216,-33.8325,-33.8325)">
        <path d="M256,49.746C369.835,49.746 462.254,142.165 462.254,256C462.254,369.835 369.835,462.254 256,462.254C142.165,462.254 49.746,369.835 49.746,256C49.746,142.165 142.165,49.746 256,49.746ZM287.042,226.095L287.042,408.198L223.902,408.198L223.902,226.095L287.042,226.095ZM292.744,140.546C292.744,150.682 289.154,159.34 281.974,166.52C274.794,173.7 266.136,177.29 256,177.29C245.864,177.29 237.206,173.7 230.026,166.52C222.846,159.34 219.256,150.682 219.256,140.546C219.256,130.41 222.846,121.752 230.026,114.572C237.206,107.392 245.864,103.802 256,103.802C265.996,103.802 274.618,107.392 281.869,114.572C289.119,121.752 292.744,130.41 292.744,140.546Z" style="fill:white;"/>
    </g>
</svg>
