<?xml version="1.0" encoding="UTF-8" standalone="no"?>
<!DOCTYPE svg PUBLIC "-//W3C//DTD SVG 1.1//EN" "http://www.w3.org/Graphics/SVG/1.1/DTD/svg11.dtd">
<svg width="100%" height="100%" viewBox="0 0 128 128" version="1.1" xmlns="http://www.w3.org/2000/svg" xmlns:xlink="http://www.w3.org/1999/xlink" xml:space="preserve" xmlns:serif="http://www.serif.com/" style="fill-rule:evenodd;clip-rule:evenodd;stroke-linejoin:round;stroke-miterlimit:2;">
    <g transform="matrix(1.14766,0,0,1.14766,-20.8991,-12.1551)">
        <path d="M83.099,12.465C76.996,11.443 70.766,11.443 64.663,12.465L61.486,30.448C58.38,31.488 55.419,32.915 52.67,34.694L36.629,25.966C32.024,30.1 28.14,34.971 25.134,40.38L37.213,54.076C36.09,57.152 35.358,60.357 35.035,63.616L18.21,70.716C18.571,76.893 19.957,82.967 22.313,88.689L40.552,87.786C42.256,90.581 44.306,93.152 46.653,95.436L41.713,113.017C46.768,116.586 52.381,119.289 58.323,121.016L68.989,106.192C72.237,106.603 75.525,106.603 78.774,106.192L89.439,121.016C95.381,119.289 100.995,116.586 106.049,113.017L101.11,95.436C103.456,93.152 105.506,90.581 107.21,87.786L125.45,88.689C127.805,82.967 129.191,76.893 129.552,70.716L112.727,63.616C112.404,60.357 111.673,57.152 110.55,54.076L122.628,40.38C119.623,34.971 115.738,30.1 111.134,25.966L95.093,34.694C92.344,32.915 89.382,31.488 86.277,30.448L83.099,12.465ZM73.881,46.831C85.269,46.831 94.514,56.076 94.514,67.464C94.514,78.852 85.269,88.097 73.881,88.097C62.493,88.097 53.248,78.852 53.248,67.464C53.248,56.076 62.493,46.831 73.881,46.831Z" style="fill:white;"/>
    </g>
</svg>
