<?xml version="1.0" standalone="no"?>
<!DOCTYPE svg PUBLIC "-//W3C//DTD SVG 20010904//EN"
 "http://www.w3.org/TR/2001/REC-SVG-20010904/DTD/svg10.dtd">
<svg version="1.0" xmlns="http://www.w3.org/2000/svg"
 width="700.000000pt" height="700.000000pt" viewBox="0 0 700.000000 700.000000"
 preserveAspectRatio="xMidYMid meet">
<metadata>
Created by potrace 1.14, written by Peter Selinger 2001-2017
</metadata>
<g transform="translate(0.000000,700.000000) scale(0.100000,-0.100000)"
fill="#000000" stroke="none">
<path d="M3165 6974 c-87 -32 -119 -41 -170 -48 -565 -77 -1176 -339 -1630
-701 -140 -111 -152 -122 -316 -285 -338 -336 -582 -705 -763 -1151 -59 -146
-130 -365 -151 -469 -2 -8 -12 -58 -24 -110 -11 -52 -23 -115 -27 -140 -3 -25
-8 -52 -9 -61 -2 -9 -6 -40 -9 -70 -4 -30 -9 -70 -11 -89 -22 -171 -22 -573 0
-710 2 -14 7 -50 10 -80 8 -74 39 -254 49 -288 3 -9 8 -33 11 -52 19 -112 115
-403 193 -585 84 -197 166 -349 291 -540 36 -55 69 -104 73 -110 5 -5 45 -57
90 -115 87 -111 103 -130 213 -248 74 -79 148 -150 230 -223 28 -24 52 -46 55
-49 11 -12 178 -140 250 -190 309 -220 762 -428 1120 -515 48 -12 200 -45 225
-49 171 -28 220 -40 276 -63 63 -27 66 -27 337 -31 l274 -3 106 35 c59 19 139
40 177 46 39 5 81 12 95 15 14 2 50 10 80 16 385 76 808 249 1165 478 304 194
650 511 862 791 23 30 47 60 53 67 25 30 172 256 212 328 190 335 313 658 387
1018 16 78 32 162 35 187 14 111 16 127 21 160 16 119 22 410 11 570 -15 203
-21 254 -61 480 -3 19 -21 93 -40 165 -157 610 -459 1141 -894 1575 -158 158
-200 196 -306 281 -185 147 -394 280 -605 384 -114 58 -267 126 -315 141 -5 2
-70 24 -144 49 -141 49 -431 122 -516 130 -67 7 -136 23 -217 51 l-98 34 -263
0 c-256 -1 -264 -1 -332 -26z m49 -1147 c-1 -259 -2 -478 -3 -484 -1 -10 -96
-13 -441 -13 l-440 0 69 134 c218 427 495 713 801 829 8 3 15 6 15 6 0 1 -1
-212 -1 -472z m737 393 c120 -71 212 -147 319 -265 62 -69 200 -248 200 -260
0 -4 14 -27 31 -51 17 -25 62 -105 100 -179 l69 -135 -443 0 -442 0 0 484 0
484 50 -20 c28 -10 79 -37 116 -58z m-1746 -152 c-44 -77 -143 -280 -179 -368
-15 -36 -31 -74 -36 -85 -15 -31 -86 -227 -94 -257 l-6 -28 -331 0 -331 0 43
53 c72 87 288 297 389 378 105 85 232 175 327 232 57 35 244 136 251 137 2 0
-13 -28 -33 -62z m2780 -57 c46 -27 231 -149 260 -173 172 -139 227 -188 325
-287 63 -64 135 -140 158 -169 l44 -52 -329 0 -328 0 -29 83 c-79 227 -187
469 -286 646 l-42 73 94 -49 c51 -27 111 -60 133 -72z m-3261 -1314 c-7 -39
-33 -191 -39 -232 -3 -23 -7 -50 -9 -61 -7 -37 -31 -249 -41 -369 -2 -27 -7
-93 -10 -145 -3 -52 -8 -96 -11 -99 -3 -3 -230 -6 -506 -6 -390 0 -502 3 -505
12 -4 10 13 152 22 193 1 3 5 25 9 50 31 182 105 419 200 642 l15 36 440 0
440 0 -5 -21z m1490 -427 c1 -245 0 -454 -2 -465 -3 -20 -11 -20 -605 -19
-331 1 -607 2 -614 3 -7 0 -11 7 -8 14 2 6 6 50 9 97 15 232 88 694 125 793
l10 26 543 -2 542 -2 0 -445z m1672 400 c8 -25 18 -67 23 -95 6 -27 13 -61 16
-75 12 -54 44 -250 55 -329 12 -91 15 -116 25 -266 4 -55 9 -103 12 -107 6
-11 40 -10 -629 -12 -525 -1 -598 1 -599 14 -3 42 -4 897 -1 906 2 9 144 12
544 10 l541 -1 13 -45z m1277 17 c83 -171 176 -477 211 -697 24 -149 29 -200
19 -201 -39 -4 -1006 -3 -1008 2 -2 3 -7 52 -10 110 -4 57 -8 120 -10 139 -2
19 -7 67 -10 105 -4 39 -9 84 -11 100 -2 17 -6 53 -10 80 -3 28 -7 61 -9 74
-3 13 -7 45 -10 70 -6 38 -27 166 -40 233 -3 15 31 16 435 16 l438 1 15 -32z
m-4549 -1477 c2 -3 7 -48 10 -100 6 -89 9 -121 22 -260 6 -68 15 -149 19 -172
2 -9 6 -41 10 -70 3 -29 14 -99 23 -156 l18 -102 -450 2 -450 3 -34 85 c-27
71 -94 274 -107 330 -29 119 -60 291 -70 385 l-6 60 505 0 c278 0 507 -3 510
-5z m1596 -10 c5 -12 5 -788 1 -837 -1 -10 -118 -13 -550 -13 l-549 0 -10 33
c-16 51 -43 186 -59 292 -2 17 -8 55 -13 85 -5 30 -12 84 -16 120 -3 36 -7 76
-10 90 -2 14 -6 68 -9 120 -4 52 -8 100 -10 107 -2 6 3 13 12 15 9 2 285 3
612 3 521 0 597 -2 601 -15z m1796 -90 c-3 -58 -7 -116 -10 -130 -2 -14 -7
-59 -11 -99 -3 -41 -8 -77 -10 -80 -1 -4 -6 -33 -10 -66 -3 -33 -15 -107 -27
-165 -11 -58 -22 -116 -24 -130 -3 -14 -9 -40 -15 -57 l-11 -33 -549 0 c-302
0 -549 3 -550 8 -1 4 -2 197 -3 429 -1 359 1 423 13 425 8 2 284 3 614 3 l599
0 -6 -105z m1377 101 c16 -1 17 -8 12 -63 -6 -58 -27 -180 -40 -238 -3 -14 -7
-37 -9 -51 -8 -53 -86 -309 -124 -404 l-39 -100 -450 -3 -450 -2 13 67 c12 68
18 103 30 198 3 28 8 59 10 70 2 10 7 49 10 85 4 36 8 79 10 95 1 17 6 71 9
120 4 50 9 106 10 125 2 19 4 51 4 70 l1 35 493 -1 c270 -1 500 -2 510 -3z
m-4484 -1579 c68 -209 195 -500 302 -691 l41 -74 -108 58 c-245 129 -485 307
-685 505 -99 99 -269 291 -269 305 0 3 154 5 343 5 l342 0 34 -108z m1316
-407 c0 -399 -3 -515 -12 -515 -44 0 -244 119 -332 196 -193 170 -350 384
-486 660 -41 84 -75 157 -75 163 0 8 127 11 453 11 l452 0 0 -515z m1475 506
c0 -17 -80 -182 -138 -286 -195 -350 -437 -598 -697 -715 -57 -26 -65 -27 -66
-12 -3 46 -5 1008 -1 1015 5 11 902 9 902 -2z m1108 -23 c-86 -123 -308 -348
-470 -479 -129 -104 -340 -243 -470 -309 l-100 -52 42 74 c98 174 226 464 294
672 20 60 39 112 42 117 3 5 158 9 345 9 l340 0 -23 -32z"/>
</g>
</svg>
